<svg width="690" height="124" viewBox="0 0 690 124" fill="none" xmlns="http://www.w3.org/2000/svg">
<path d="M96.9646 37.9638L24.2411 110.687L0 86.4456L72.7235 13.7226L96.9646 37.9638Z" fill="#090909"/>
<path d="M82.9498 72.431L107.191 48.1899L145.277 86.276L121.036 110.517L82.9498 72.431Z" fill="#090909"/>
<path d="M219.611 92.8415C215.384 89.1654 213.208 84.1214 213.208 77.9851C213.208 63.3946 224.654 55.6245 241.012 55.6245C245.605 55.685 250.159 56.4671 254.51 57.9422V53.4492C254.51 46.7999 248.924 42.4019 241.42 42.4019C234.476 42.4019 229.157 45.679 225.614 52.0813L215.118 42.2689C220.162 33.1309 230.658 28.3623 241.563 28.3623C258.87 28.3623 270.06 37.092 270.06 53.5822V96.7931H254.795V91.6161C249.751 96.1186 243.339 98.2654 235.711 98.2654C229.29 98.2939 223.971 96.5271 219.611 92.8415ZM238.836 84.6629C245.239 84.6629 250.558 82.7631 254.51 78.9635V71.3643C250.074 69.6318 245.365 68.7084 240.603 68.6381C233.384 68.6381 228.748 71.6398 228.748 76.9497C228.748 81.3952 232.291 84.6629 238.836 84.6629Z" fill="#090909"/>
<path d="M293.531 91.8916V123.238H277.991V29.9868H293.266V35.9901C298.015 30.9461 304.436 28.3909 312.207 28.3909C321.753 28.3909 329.523 31.668 335.66 38.3458C341.796 45.0236 344.788 53.3352 344.788 63.4231C344.788 73.5111 341.796 81.8322 335.66 88.51C329.523 95.1878 321.753 98.3224 312.207 98.3224C305.417 98.4528 298.801 96.1745 293.531 91.8916ZM324.204 78.5266C327.306 74.1421 328.972 68.9033 328.972 63.5324C328.972 58.1614 327.306 52.9227 324.204 48.5382C321.037 44.4536 316.677 42.4082 311.124 42.4019C299.668 42.4019 293.266 51.5399 293.266 63.5371C293.266 75.5344 299.668 84.6629 311.124 84.6629C316.709 84.6629 321.069 82.6175 324.204 78.5266Z" fill="#090909"/>
<path d="M366.636 91.8916V123.238H351.095V29.9868H366.37V35.9901C371.119 30.9461 377.541 28.3909 385.311 28.3909C394.857 28.3909 402.627 31.668 408.764 38.3458C414.9 45.0236 417.892 53.3352 417.892 63.4231C417.892 73.5111 414.9 81.8322 408.764 88.51C402.627 95.1878 394.857 98.3224 385.311 98.3224C378.522 98.4512 371.906 96.173 366.636 91.8916ZM397.308 78.5266C400.417 74.1447 402.087 68.905 402.087 63.5324C402.087 58.1598 400.417 52.92 397.308 48.5382C394.173 44.4536 389.813 42.4082 384.228 42.4019C372.772 42.4019 366.37 51.5399 366.37 63.5371C366.37 75.5344 372.772 84.6629 384.228 84.6629C389.807 84.6629 394.18 82.6175 397.346 78.5266H397.308Z" fill="#090909"/>
<path d="M487.168 68.0301H441.497C442.181 77.9851 449.097 84.2544 459.08 84.2544C466.312 84.2544 472.04 81.1198 476.264 74.8505L486.76 84.6629C479.664 93.8009 470.403 98.2939 459.08 98.2939C449.135 98.2939 440.956 95.1592 434.82 88.7949C428.683 82.4306 425.548 74.0715 425.548 63.841C425.548 53.8956 428.398 45.4416 434.002 38.6213C439.607 31.801 447.358 28.4004 456.8 28.4004C478.477 28.4004 487.339 45.717 487.339 62.5967L487.168 68.0301ZM442.314 55.6245H470.811C470.678 48.6713 466.318 42.5444 456.914 42.5444C448.726 42.5444 443.815 48.4528 442.314 55.6245Z" fill="#090909"/>
<path d="M533.533 96.7931H507.638C506.814 96.7944 505.998 96.6331 505.236 96.3186C504.475 96.0041 503.782 95.5425 503.199 94.9602C502.616 94.3779 502.154 93.6863 501.838 92.9251C501.522 92.1638 501.36 91.3479 501.36 90.5238V43.9027H490.046V29.9961H501.36V11.3212H516.758V29.9961H556.292V43.9027H548.522H516.758V82.0792H533.533V96.7931Z" fill="#090909"/>
<path d="M549.472 2.85758C551.323 1.02684 553.822 0 556.426 0C559.029 0 561.527 1.02684 563.379 2.85758C564.287 3.75985 565.007 4.83287 565.499 6.01479C565.991 7.19671 566.244 8.46419 566.244 9.74435C566.244 11.0245 565.991 12.292 565.499 13.4739C565.007 14.6558 564.287 15.7288 563.379 16.6311C561.53 18.4665 559.031 19.4965 556.426 19.4965C553.82 19.4965 551.321 18.4665 549.472 16.6311C548.566 15.7276 547.847 14.6541 547.357 13.4724C546.867 12.2907 546.614 11.0238 546.614 9.74435C546.614 8.4649 546.867 7.19804 547.357 6.0163C547.847 4.83455 548.566 3.76114 549.472 2.85758ZM548.522 96.7836V43.9027V29.9868H564.062V96.7836H548.522Z" fill="#090909"/>
<path d="M572.127 29.9961H622.975V43.2188L590.394 82.7536H624.59V96.7931H571.396V83.599L603.692 43.9312H572.127V29.9961Z" fill="#090909"/>
<path d="M689.829 68.0301H644.158C644.842 77.9851 651.757 84.2544 661.74 84.2544C668.966 84.2544 674.691 81.1198 678.915 74.8505L689.421 84.6629C682.325 93.8009 673.054 98.2939 661.74 98.2939C651.795 98.2939 643.616 95.1592 637.48 88.7949C631.344 82.4306 628.209 74.0715 628.209 63.841C628.209 53.8956 631.059 45.4416 636.663 38.6213C642.268 31.801 650.019 28.4004 659.461 28.4004C681.137 28.4004 690 45.717 690 62.5967L689.829 68.0301ZM644.975 55.6245H673.472C673.339 48.6713 668.979 42.5444 659.575 42.5444C651.387 42.5444 646.476 48.4528 644.975 55.6245Z" fill="#090909"/>
</svg>
