<?xml version="1.0" standalone="no"?>
<!DOCTYPE svg PUBLIC "-//W3C//DTD SVG 20010904//EN"
 "http://www.w3.org/TR/2001/REC-SVG-20010904/DTD/svg10.dtd">
<svg version="1.0" xmlns="http://www.w3.org/2000/svg"
 width="1224.000000pt" height="1224.000000pt" viewBox="0 0 1224.000000 1224.000000"
 preserveAspectRatio="xMidYMid meet">
<metadata>
Created by potrace 1.14, written by Peter Selinger 2001-2017
</metadata>
<g transform="translate(0.000000,1224.000000) scale(0.100000,-0.100000)"
fill="#000000" stroke="none">
<path d="M2786 12233 c-2 -3 -30 -6 -62 -8 -91 -6 -149 -14 -244 -32 -14 -2
-38 -6 -55 -8 -16 -2 -30 -4 -30 -5 0 -3 -94 -22 -112 -23 -7 0 -13 -5 -13
-10 0 -5 -7 -7 -15 -4 -8 4 -17 2 -21 -4 -3 -6 -12 -8 -19 -5 -7 2 -16 2 -20
-2 -4 -4 -10 -7 -13 -8 -13 -1 -97 -25 -112 -31 -8 -4 -19 -7 -25 -8 -5 -1
-27 -9 -49 -18 -21 -9 -44 -17 -51 -17 -6 0 -15 -3 -19 -7 -4 -5 -11 -8 -14
-9 -4 0 -20 -6 -35 -12 -15 -7 -39 -15 -52 -18 -14 -3 -25 -10 -25 -15 0 -5
-8 -9 -17 -9 -10 0 -27 -7 -37 -15 -11 -8 -28 -15 -38 -15 -10 0 -18 -4 -18
-9 0 -5 -12 -12 -26 -15 -14 -4 -35 -15 -46 -26 -12 -11 -24 -17 -29 -15 -4 3
-15 -2 -23 -11 -9 -8 -16 -12 -16 -8 0 3 -7 0 -16 -7 -18 -15 -33 -24 -98 -58
-25 -14 -46 -28 -46 -32 0 -4 -10 -11 -22 -15 -13 -4 -25 -10 -28 -13 -7 -10
-109 -81 -115 -81 -3 0 -20 -13 -38 -29 -17 -16 -35 -30 -39 -31 -4 0 -18 -10
-32 -23 -60 -56 -96 -87 -100 -87 -6 0 -224 -218 -266 -266 -53 -61 -113 -135
-129 -158 -8 -12 -18 -23 -21 -26 -4 -3 -15 -20 -25 -37 -11 -18 -23 -33 -27
-33 -4 0 -8 -6 -8 -13 0 -8 -9 -22 -20 -32 -11 -10 -20 -24 -20 -32 0 -7 -4
-13 -10 -13 -5 0 -10 -7 -10 -15 0 -8 -4 -15 -10 -15 -5 0 -10 -7 -10 -15 0
-8 -4 -15 -9 -15 -5 0 -15 -16 -22 -35 -7 -19 -16 -35 -20 -35 -9 0 -179 -344
-179 -364 0 -9 -4 -16 -10 -16 -5 0 -10 -10 -10 -23 0 -13 -4 -27 -9 -32 -5
-6 -14 -28 -20 -50 -7 -22 -16 -49 -21 -60 -14 -35 -23 -59 -27 -80 -6 -28 -9
-38 -16 -55 -6 -15 -42 -155 -51 -200 -3 -14 -7 -34 -9 -45 -7 -32 -21 -118
-23 -140 -1 -11 -2 -22 -4 -25 -2 -6 -6 -35 -14 -118 -3 -35 -8 -67 -11 -73
-4 -5 0 -9 7 -9 9 0 9 -3 2 -8 -8 -5 -10 -943 -8 -3357 2 -1842 3 -3360 4
-3372 0 -12 5 -34 10 -48 6 -17 6 -25 -1 -25 -6 0 -7 -6 -2 -13 4 -6 8 -16 9
-22 1 -5 5 -37 9 -70 5 -33 9 -62 10 -65 1 -4 16 -85 29 -150 2 -8 6 -23 10
-32 4 -9 5 -21 2 -27 -3 -5 -2 -11 3 -13 5 -1 12 -16 15 -33 8 -43 30 -119 36
-125 5 -5 7 -14 13 -48 2 -9 9 -27 15 -39 7 -13 10 -23 6 -23 -3 0 -1 -7 6
-15 7 -8 9 -15 5 -15 -4 0 -2 -7 5 -15 7 -8 9 -15 4 -15 -5 0 -4 -4 2 -8 7 -4
14 -18 15 -32 2 -14 8 -28 14 -32 5 -4 10 -11 11 -15 3 -24 134 -297 146 -301
4 -2 8 -10 8 -17 0 -8 6 -20 13 -27 7 -7 15 -17 17 -23 5 -16 34 -59 45 -67 5
-4 7 -8 3 -8 -4 0 11 -26 32 -57 22 -32 46 -67 53 -77 6 -10 22 -31 34 -46 13
-15 23 -33 23 -40 0 -6 4 -8 10 -5 5 3 10 1 10 -5 0 -6 5 -16 10 -23 6 -7 20
-24 33 -38 12 -15 38 -46 57 -69 61 -75 343 -350 359 -350 4 0 13 -9 21 -20 8
-11 18 -20 22 -20 7 0 43 -28 73 -57 7 -7 15 -9 19 -6 3 4 6 1 6 -5 0 -7 5
-12 10 -12 5 0 18 -8 29 -17 21 -20 198 -134 206 -133 3 0 13 -6 21 -15 9 -8
22 -15 30 -15 8 0 14 -3 14 -7 0 -5 25 -19 55 -33 30 -14 55 -29 55 -33 0 -5
4 -5 10 -2 5 3 10 1 10 -4 0 -6 3 -10 8 -9 8 1 45 -13 52 -21 3 -3 20 -12 38
-18 17 -7 47 -19 65 -25 17 -7 35 -17 39 -23 4 -5 8 -6 8 -2 0 4 10 2 22 -5
13 -6 29 -13 36 -14 8 -1 21 -6 30 -10 9 -4 19 -8 22 -9 23 -5 89 -28 105 -36
11 -5 29 -11 40 -12 11 -2 27 -6 35 -10 18 -6 98 -27 125 -32 11 -2 20 -4 20
-5 0 -3 51 -13 73 -14 12 -1 22 -4 22 -8 0 -4 9 -5 20 -3 11 2 20 1 20 -3 0
-4 12 -8 28 -8 15 -1 45 -5 67 -9 22 -4 58 -8 80 -10 22 -2 40 -4 40 -6 0 -1
23 -3 51 -4 28 -1 55 -4 60 -7 11 -7 6706 -2 6754 5 19 3 60 8 90 11 55 7 83
12 130 22 14 3 41 7 60 9 19 2 35 4 35 5 0 2 33 8 63 12 6 1 12 4 12 8 0 4 11
6 25 5 14 -2 25 1 25 7 0 6 6 8 14 5 7 -3 19 0 25 6 6 6 11 8 11 5 0 -3 21 1
48 9 26 8 58 17 72 19 13 3 29 9 36 15 6 5 14 6 17 2 4 -3 7 -1 7 5 0 7 3 11
8 10 17 -4 82 15 82 24 0 6 7 8 15 4 8 -3 15 -1 15 4 0 6 11 10 25 10 14 0 25
5 25 10 0 6 8 10 18 10 10 0 22 3 26 8 4 4 11 7 14 7 12 0 226 107 252 125 14
10 28 17 32 16 4 0 17 7 28 16 11 10 24 18 28 18 4 0 31 16 59 35 29 19 55 35
57 35 3 0 14 7 23 15 10 8 55 40 100 72 90 64 158 119 215 174 21 20 38 35 38
33 0 -3 24 20 54 50 30 30 57 52 60 48 3 -3 6 0 6 6 0 7 21 34 48 61 66 70
131 145 132 153 0 4 10 18 23 30 12 13 33 38 47 56 14 19 30 40 37 47 7 7 9
15 6 19 -4 3 -1 6 5 6 7 0 12 7 12 15 0 8 4 15 9 15 8 0 96 134 141 218 13 23
28 42 34 42 5 0 7 3 4 6 -4 3 15 47 41 97 26 51 62 128 80 172 19 44 36 85 39
90 4 6 8 19 9 29 2 11 8 25 13 31 5 7 7 15 3 18 -3 4 -1 7 5 7 7 0 11 3 10 8
-3 11 13 76 22 87 4 6 11 24 15 40 4 17 9 37 11 45 41 159 42 164 50 205 3 17
9 49 15 72 5 24 9 46 8 50 -1 5 0 10 1 13 1 3 4 19 5 35 2 17 4 30 5 30 1 0 3
11 5 25 1 14 6 59 10 100 8 66 11 6657 4 6803 -1 31 -5 57 -8 57 -3 0 -7 19
-7 43 -1 23 -5 58 -8 77 -4 19 -8 46 -10 60 -2 14 -8 50 -15 80 -6 30 -13 64
-15 75 -2 11 -9 40 -16 65 -7 25 -13 50 -14 55 -7 30 -29 101 -34 110 -4 6 -8
21 -10 35 -2 13 -8 30 -14 37 -6 7 -8 13 -4 13 4 0 0 13 -9 30 -8 16 -16 33
-16 37 -1 5 -5 18 -10 31 -5 13 -9 25 -9 28 0 2 -17 39 -37 81 -20 43 -35 84
-34 91 1 6 -3 12 -9 12 -6 0 -8 5 -5 10 3 6 3 10 -2 10 -4 0 -19 24 -32 52
-13 29 -44 86 -68 126 -23 41 -43 78 -43 82 0 5 -8 14 -17 19 -10 6 -15 11
-11 11 4 0 0 9 -10 20 -9 12 -15 23 -14 27 2 3 0 9 -5 12 -4 3 -24 29 -43 56
-19 28 -38 52 -42 53 -4 2 -8 10 -8 18 0 7 -9 19 -20 26 -11 7 -20 17 -20 21
0 5 -6 14 -12 22 -7 7 -24 27 -38 45 -14 18 -40 48 -57 67 -18 19 -33 37 -33
40 0 5 -197 199 -254 251 -20 17 -41 32 -47 32 -6 0 -8 4 -4 9 3 5 -4 12 -15
16 -11 3 -20 11 -20 16 0 6 -4 7 -10 4 -5 -3 -10 1 -10 10 0 9 -4 13 -10 10
-5 -3 -10 -1 -10 5 0 6 -4 8 -10 5 -6 -3 -10 0 -10 7 0 7 -20 25 -43 40 -23
15 -75 50 -114 77 -40 27 -73 47 -73 45 0 -3 -10 5 -22 16 -13 11 -33 23 -45
26 -13 4 -23 9 -23 13 0 3 -22 17 -50 30 -27 13 -50 28 -50 32 0 5 -3 8 -7 7
-5 -1 -53 21 -108 47 -55 27 -102 49 -105 50 -3 0 -15 6 -26 13 -12 6 -24 8
-28 5 -3 -3 -6 -2 -6 4 0 5 -6 10 -12 10 -11 1 -93 29 -148 50 -8 4 -18 7 -22
8 -5 2 -9 3 -10 5 -2 1 -10 3 -18 5 -8 2 -47 14 -87 27 -39 13 -69 20 -66 15
4 -6 1 -7 -8 -1 -8 5 -17 9 -21 10 -5 1 -10 3 -13 4 -3 1 -8 3 -12 4 -85 19
-166 36 -198 41 -22 4 -53 9 -68 12 -16 2 -45 6 -66 7 -20 1 -41 5 -46 8 -6 3
-34 5 -63 4 -28 0 -52 2 -52 5 0 6 -6668 8 -6674 2z"/>
</g>
</svg>
